<svg width="105" height="105" viewBox="0 0 105 105" fill="none" xmlns="http://www.w3.org/2000/svg">
<circle cx="52.5" cy="52.5" r="52" fill="white" fill-opacity="0.3" stroke="white"/>
<mask id="mask0_0_1" style="mask-type:alpha" maskUnits="userSpaceOnUse" x="57" y="40" width="28" height="28">
<rect x="57" y="40" width="27.3994" height="27.3994" fill="#D9D9D9"/>
</mask>
<g mask="url(#mask0_0_1)">
<path d="M70.7 63.4672C70.5215 63.4672 70.343 63.4379 70.1643 63.3793C69.9858 63.3209 69.8211 63.2257 69.6703 63.0939C68.858 62.3474 68.0347 61.5161 67.2003 60.6C66.3661 59.6838 65.6084 58.735 64.927 57.7536C64.2456 56.7721 63.6873 55.7702 63.2519 54.7479C62.8164 53.7256 62.5986 52.7278 62.5986 51.7545C62.5986 49.3394 63.385 47.3473 64.9578 45.7783C66.5304 44.2093 68.4445 43.4248 70.7 43.4248C72.9555 43.4248 74.8696 44.2093 76.4422 45.7783C78.015 47.3473 78.8014 49.3394 78.8014 51.7545C78.8014 52.7278 78.5836 53.7219 78.1481 54.7371C77.7127 55.752 77.158 56.7538 76.4839 57.7424C75.8099 58.7313 75.0558 59.6801 74.2214 60.5888C73.3872 61.4978 72.564 62.3255 71.7517 63.0719C71.6062 63.2038 71.4408 63.3026 71.2557 63.3684C71.0704 63.4343 70.8851 63.4672 70.7 63.4672ZM70.704 53.3922C71.2122 53.3922 71.646 53.2112 72.0052 52.8493C72.3646 52.4874 72.5443 52.0524 72.5443 51.5442C72.5443 51.0359 72.3633 50.6021 72.0012 50.2427C71.6393 49.8835 71.2042 49.7038 70.696 49.7038C70.1878 49.7038 69.7541 49.8848 69.3948 50.2467C69.0354 50.6086 68.8557 51.0436 68.8557 51.5519C68.8557 52.0601 69.0367 52.4939 69.3988 52.8533C69.7607 53.2126 70.1958 53.3922 70.704 53.3922Z" fill="#F4F4F4"/>
</g>
<mask id="mask1_0_1" style="mask-type:alpha" maskUnits="userSpaceOnUse" x="20" y="19" width="28" height="28">
<rect x="20" y="19" width="27.3994" height="27.3994" fill="#D9D9D9"/>
</mask>
<g mask="url(#mask1_0_1)">
<path d="M33.7 41.464C35.8457 39.5962 37.5421 37.6967 38.7892 35.7655C40.0362 33.8342 40.6597 32.1639 40.6597 30.7545C40.6597 28.6659 39.9985 26.942 38.6761 25.5829C37.3537 24.2239 35.695 23.5445 33.7 23.5445C31.705 23.5445 30.0463 24.2239 28.7239 25.5829C27.4015 26.942 26.7403 28.6659 26.7403 30.7545C26.7403 32.1639 27.3638 33.8342 28.6109 35.7655C29.8579 37.6967 31.5543 39.5962 33.7 41.464ZM33.7 42.4672C33.5215 42.4672 33.343 42.4379 33.1643 42.3793C32.9858 42.3209 32.8211 42.2257 32.6703 42.0939C31.858 41.3474 31.0347 40.5161 30.2003 39.6C29.3661 38.6838 28.6084 37.735 27.927 36.7536C27.2456 35.7721 26.6873 34.7702 26.2519 33.7479C25.8164 32.7256 25.5986 31.7278 25.5986 30.7545C25.5986 28.3394 26.385 26.3473 27.9578 24.7783C29.5304 23.2093 31.4445 22.4248 33.7 22.4248C35.9555 22.4248 37.8696 23.2093 39.4422 24.7783C41.015 26.3473 41.8014 28.3394 41.8014 30.7545C41.8014 31.7278 41.5836 32.7219 41.1481 33.7371C40.7127 34.752 40.158 35.7538 39.4839 36.7424C38.8099 37.7313 38.0558 38.6801 37.2214 39.5888C36.3872 40.4978 35.564 41.3255 34.7517 42.0719C34.6062 42.2038 34.4408 42.3026 34.2557 42.3684C34.0704 42.4343 33.8851 42.4672 33.7 42.4672ZM33.704 32.3922C34.2122 32.3922 34.646 32.2112 35.0052 31.8493C35.3646 31.4874 35.5443 31.0524 35.5443 30.5442C35.5443 30.0359 35.3633 29.6021 35.0012 29.2427C34.6393 28.8835 34.2042 28.7038 33.696 28.7038C33.1878 28.7038 32.7541 28.8848 32.3948 29.2467C32.0354 29.6086 31.8557 30.0436 31.8557 30.5519C31.8557 31.0601 32.0367 31.4939 32.3988 31.8533C32.7607 32.2126 33.1958 32.3922 33.704 32.3922Z" fill="#F4F4F4"/>
</g>
<path d="M70 64.5C64.8333 59.6667 53.3 50 48.5 50C43.7 50 37.1667 45.3333 34.5 43" stroke="#F0F0F0" stroke-dasharray="2 2"/>
<mask id="mask2_0_1" style="mask-type:alpha" maskUnits="userSpaceOnUse" x="23" y="59" width="28" height="28">
<rect x="23" y="59" width="27.3994" height="27.3994" fill="#D9D9D9"/>
</mask>
<g mask="url(#mask2_0_1)">
<path d="M36.7 81.464C38.8457 79.5962 40.5421 77.6967 41.7892 75.7655C43.0362 73.8342 43.6597 72.1639 43.6597 70.7545C43.6597 68.6659 42.9985 66.942 41.6761 65.5829C40.3537 64.2239 38.695 63.5445 36.7 63.5445C34.705 63.5445 33.0463 64.2239 31.7239 65.5829C30.4015 66.942 29.7403 68.6659 29.7403 70.7545C29.7403 72.1639 30.3638 73.8342 31.6109 75.7655C32.8579 77.6967 34.5543 79.5962 36.7 81.464ZM36.7 82.4672C36.5215 82.4672 36.343 82.4379 36.1643 82.3793C35.9858 82.3209 35.8211 82.2257 35.6703 82.0939C34.858 81.3474 34.0347 80.5161 33.2003 79.6C32.3661 78.6838 31.6084 77.735 30.927 76.7536C30.2456 75.7721 29.6873 74.7702 29.2519 73.7479C28.8164 72.7256 28.5986 71.7278 28.5986 70.7545C28.5986 68.3394 29.385 66.3473 30.9578 64.7783C32.5304 63.2093 34.4445 62.4248 36.7 62.4248C38.9555 62.4248 40.8696 63.2093 42.4422 64.7783C44.015 66.3473 44.8014 68.3394 44.8014 70.7545C44.8014 71.7278 44.5836 72.7219 44.1481 73.7371C43.7127 74.752 43.158 75.7538 42.4839 76.7424C41.8099 77.7313 41.0558 78.6801 40.2214 79.5888C39.3872 80.4978 38.564 81.3255 37.7517 82.0719C37.6062 82.2038 37.4408 82.3026 37.2557 82.3684C37.0704 82.4343 36.8851 82.4672 36.7 82.4672ZM36.704 72.3922C37.2122 72.3922 37.646 72.2112 38.0052 71.8493C38.3646 71.4874 38.5443 71.0524 38.5443 70.5442C38.5443 70.0359 38.3633 69.6021 38.0012 69.2427C37.6393 68.8835 37.2042 68.7038 36.696 68.7038C36.1878 68.7038 35.7541 68.8848 35.3948 69.2467C35.0354 69.6086 34.8557 70.0436 34.8557 70.5519C34.8557 71.0601 35.0367 71.4939 35.3988 71.8533C35.7607 72.2126 36.1958 72.3922 36.704 72.3922Z" fill="#F4F4F4"/>
</g>
<path d="M70 64C63.5 66.8333 50 73.5 48 77.5C46 81.5 39.8333 83.1667 37 83.5" stroke="white" stroke-dasharray="2 2"/>
</svg>
