<svg width="56" height="56" viewBox="0 0 56 56" fill="none" xmlns="http://www.w3.org/2000/svg">
<mask id="mask0_279_32" style="mask-type:alpha" maskUnits="userSpaceOnUse" x="16" y="16" width="24" height="24">
<rect x="16" y="16" width="24" height="24" fill="#D9D9D9"/>
</mask>
<g mask="url(#mask0_279_32)">
<path d="M26.7998 27.9998L30.6998 31.8998C30.8831 32.0831 30.9748 32.3165 30.9748 32.5998C30.9748 32.8831 30.8831 33.1165 30.6998 33.2998C30.5165 33.4831 30.2831 33.5748 29.9998 33.5748C29.7165 33.5748 29.4831 33.4831 29.2998 33.2998L24.6998 28.6998C24.5998 28.5998 24.529 28.4915 24.4873 28.3748C24.4456 28.2581 24.4248 28.1331 24.4248 27.9998C24.4248 27.8665 24.4456 27.7415 24.4873 27.6248C24.529 27.5081 24.5998 27.3998 24.6998 27.2998L29.2998 22.6998C29.4831 22.5165 29.7165 22.4248 29.9998 22.4248C30.2831 22.4248 30.5165 22.5165 30.6998 22.6998C30.8831 22.8831 30.9748 23.1165 30.9748 23.3998C30.9748 23.6831 30.8831 23.9165 30.6998 24.0998L26.7998 27.9998Z" fill="#F8F8F8"/>
</g>
<circle cx="28" cy="28" r="27.5" fill="white" fill-opacity="0.2" stroke="#F8F8F8"/>
</svg>
