<svg width="56" height="56" viewBox="0 0 56 56" fill="none" xmlns="http://www.w3.org/2000/svg">
<mask id="mask0_279_37" style="mask-type:alpha" maskUnits="userSpaceOnUse" x="16" y="16" width="24" height="24">
<rect x="16" y="16" width="24" height="24" fill="#D9D9D9"/>
</mask>
<g mask="url(#mask0_279_37)">
<path d="M28.5998 27.9998L24.6998 24.0998C24.5165 23.9165 24.4248 23.6831 24.4248 23.3998C24.4248 23.1165 24.5165 22.8831 24.6998 22.6998C24.8831 22.5165 25.1165 22.4248 25.3998 22.4248C25.6831 22.4248 25.9165 22.5165 26.0998 22.6998L30.6998 27.2998C30.7998 27.3998 30.8706 27.5081 30.9123 27.6248C30.954 27.7415 30.9748 27.8665 30.9748 27.9998C30.9748 28.1331 30.954 28.2581 30.9123 28.3748C30.8706 28.4915 30.7998 28.5998 30.6998 28.6998L26.0998 33.2998C25.9165 33.4831 25.6831 33.5748 25.3998 33.5748C25.1165 33.5748 24.8831 33.4831 24.6998 33.2998C24.5165 33.1165 24.4248 32.8831 24.4248 32.5998C24.4248 32.3165 24.5165 32.0831 24.6998 31.8998L28.5998 27.9998Z" fill="#F8F8F8"/>
</g>
<circle cx="28" cy="28" r="27.5" fill="white" fill-opacity="0.2" stroke="#F8F8F8"/>
</svg>
