<svg width="105" height="105" viewBox="0 0 105 105" fill="none" xmlns="http://www.w3.org/2000/svg">
<circle cx="52.5" cy="52.5" r="52" fill="white" fill-opacity="0.3" stroke="white"/>
<mask id="mask0_0_1" style="mask-type:alpha" maskUnits="userSpaceOnUse" x="13" y="14" width="73" height="73">
<rect x="13" y="14" width="73" height="73" fill="#D9D9D9"/>
</mask>
<g mask="url(#mask0_0_1)">
<path d="M40.3753 66.773H58.6253C58.9294 66.773 59.1829 66.6716 59.3857 66.4688C59.5885 66.2661 59.6898 66.0126 59.6898 65.7084C59.6898 65.4043 59.5885 65.1508 59.3857 64.948C59.1829 64.7452 58.9294 64.6438 58.6253 64.6438H40.3753C40.0711 64.6438 39.8176 64.7452 39.6148 64.948C39.4121 65.1508 39.3107 65.4043 39.3107 65.7084C39.3107 66.0126 39.4121 66.2661 39.6148 66.4688C39.8176 66.6716 40.0711 66.773 40.3753 66.773ZM40.3753 54.6063H58.6253C58.9294 54.6063 59.1829 54.505 59.3857 54.3022C59.5885 54.0994 59.6898 53.8459 59.6898 53.5418C59.6898 53.2376 59.5885 52.9841 59.3857 52.7813C59.1829 52.5786 58.9294 52.4772 58.6253 52.4772H40.3753C40.0711 52.4772 39.8176 52.5786 39.6148 52.7813C39.4121 52.9841 39.3107 53.2376 39.3107 53.5418C39.3107 53.8459 39.4121 54.0994 39.6148 54.3022C39.8176 54.505 40.0711 54.6063 40.3753 54.6063ZM33.6836 76.9626C32.3655 76.9626 31.2756 76.5317 30.4138 75.6699C29.552 74.8081 29.1211 73.7182 29.1211 72.4001V28.6001C29.1211 27.282 29.552 26.1921 30.4138 25.3303C31.2756 24.4685 32.3655 24.0376 33.6836 24.0376H55.6596C56.268 24.0376 56.8636 24.1643 57.4466 24.4178C58.0296 24.6713 58.5239 25.0008 58.9294 25.4063L68.5107 34.9876C68.9162 35.3932 69.2458 35.8874 69.4992 36.4704C69.7527 37.0534 69.8794 37.6491 69.8794 38.2574V72.4001C69.8794 73.7182 69.4485 74.8081 68.5867 75.6699C67.7249 76.5317 66.635 76.9626 65.3169 76.9626H33.6836ZM56.4961 35.1397V26.1668H33.6836C33.0753 26.1668 32.5176 26.4202 32.0107 26.9272C31.5037 27.4341 31.2503 27.9918 31.2503 28.6001V72.4001C31.2503 73.0084 31.5037 73.5661 32.0107 74.073C32.5176 74.58 33.0753 74.8334 33.6836 74.8334H65.3169C65.9253 74.8334 66.4829 74.58 66.9898 74.073C67.4968 73.5661 67.7503 73.0084 67.7503 72.4001V37.4209H58.7773C58.1183 37.4209 57.5734 37.2055 57.1425 36.7746C56.7115 36.3437 56.4961 35.7987 56.4961 35.1397Z" fill="#F4F4F4"/>
</g>
<mask id="mask1_0_1" style="mask-type:alpha" maskUnits="userSpaceOnUse" x="45" y="49" width="49" height="49">
<rect x="62.2725" y="49" width="35.8271" height="35.8271" transform="rotate(28.8229 62.2725 49)" fill="#D9D9D9"/>
</mask>
<g mask="url(#mask1_0_1)">
<path d="M66.6334 73.7664L56.3125 72.5201C55.8833 72.4589 55.5751 72.242 55.3879 71.8695C55.2007 71.497 55.2091 71.1254 55.4132 70.7546L55.6721 70.2841C55.7662 70.113 55.8928 69.9729 56.0519 69.8639C56.2107 69.7551 56.3855 69.6907 56.5765 69.6708L69.6893 68.2129L72.8836 62.408C73.1691 61.8892 73.598 61.5467 74.1705 61.3807C74.743 61.2144 75.2886 61.2739 75.8072 61.5593C76.3257 61.8446 76.6682 62.2738 76.8346 62.8467C77.0011 63.4194 76.9416 63.9651 76.6561 64.4839L73.4618 70.2888L79.2476 82.1462C79.333 82.3181 79.3722 82.5003 79.3652 82.6926C79.3582 82.8853 79.3077 83.0672 79.2135 83.2383L78.9546 83.7089C78.7506 84.0796 78.4411 84.2856 78.0263 84.3268C77.6114 84.3681 77.2633 84.2238 76.9819 83.894L70.4059 75.8423L67.2891 81.5063L69.3476 85.7388C69.4139 85.8821 69.4463 86.029 69.4449 86.1796C69.4436 86.3302 69.4053 86.4738 69.3301 86.6105L69.0782 87.0683C68.9213 87.3534 68.6893 87.5179 68.3823 87.5619C68.0752 87.606 67.8097 87.5138 67.5857 87.2855L63.7947 83.3907L58.4758 82.2726C58.1631 82.2056 57.9432 82.0306 57.8161 81.7476C57.6889 81.4647 57.7038 81.1807 57.8607 80.8955L58.1167 80.4303C58.1877 80.3012 58.2868 80.1953 58.4139 80.1124C58.5408 80.0298 58.6827 79.9778 58.8396 79.9565L63.5166 79.4304L66.6334 73.7664Z" fill="#F4F4F4"/>
</g>
</svg>
