<svg width="105" height="105" viewBox="0 0 105 105" fill="none" xmlns="http://www.w3.org/2000/svg">
<circle cx="52.5" cy="52.5" r="52" fill="white" fill-opacity="0.3" stroke="white"/>
<mask id="mask0_0_1" style="mask-type:alpha" maskUnits="userSpaceOnUse" x="21" y="21" width="64" height="64">
<rect x="21" y="21" width="64" height="64" fill="#D9D9D9"/>
</mask>
<g mask="url(#mask0_0_1)">
<path d="M41.3995 65.3998C41.3995 64.3776 41.7439 63.5221 42.4328 62.8332C43.1217 62.1443 43.9773 61.7998 44.9995 61.7998C46.0217 61.7998 46.8773 62.1443 47.5661 62.8332C48.255 63.5221 48.5995 64.3776 48.5995 65.3998C48.5995 66.4221 48.255 67.2776 47.5661 67.9665C46.8773 68.6554 46.0217 68.9998 44.9995 68.9998C43.9773 68.9998 43.1217 68.6554 42.4328 67.9665C41.7439 67.2776 41.3995 66.4221 41.3995 65.3998ZM36.0635 80.5998C35.7986 80.5998 35.5773 80.5103 35.3995 80.3312C35.2217 80.1525 35.1328 79.931 35.1328 79.6665V60.0665C35.1328 59.8021 35.2226 59.5803 35.4021 59.4012C35.5813 59.2225 35.8035 59.1332 36.0688 59.1332C36.3337 59.1332 36.555 59.2225 36.7328 59.4012C36.9106 59.5803 36.9995 59.8021 36.9995 60.0665V71.6665H52.9995V63.7732C52.9995 63.2141 53.1913 62.7454 53.5748 62.3672C53.9579 61.989 54.4328 61.7998 54.9995 61.7998H66.8661C68.0217 61.7998 68.9773 62.1776 69.7328 62.9332C70.4884 63.6887 70.8661 64.6443 70.8661 65.7998V79.6665C70.8661 79.931 70.7764 80.1525 70.5968 80.3312C70.4177 80.5103 70.1955 80.5998 69.9301 80.5998C69.6653 80.5998 69.4439 80.5103 69.2661 80.3312C69.0884 80.1525 68.9995 79.931 68.9995 79.6665V73.5332H36.9995V79.6665C36.9995 79.931 36.9097 80.1525 36.7301 80.3312C36.551 80.5103 36.3288 80.5998 36.0635 80.5998ZM55.1328 41.3998L48.0661 48.4665L48.6661 52.3945C48.7106 52.6203 48.7106 52.8221 48.6661 52.9998C48.6217 53.1776 48.5106 53.3554 48.3328 53.5332L48.0661 53.7998C47.7106 54.1554 47.3217 54.2887 46.8995 54.1998C46.4773 54.1109 46.155 53.8665 45.9328 53.4665L43.5328 49.1998L38.9328 46.7332C38.5773 46.5554 38.3773 46.2776 38.3328 45.8998C38.2884 45.5221 38.3995 45.1998 38.6661 44.9332L39.1995 44.3998C39.2884 44.3109 39.5995 44.1998 40.1328 44.0665L44.1808 44.5998L51.3328 37.4665L38.7995 30.6665C38.3106 30.4443 38.0439 30.0665 37.9995 29.5332C37.955 28.9998 38.1106 28.5554 38.4661 28.1998L38.9328 27.7332C39.155 27.5109 39.3884 27.3665 39.6328 27.2998C39.8773 27.2332 40.1328 27.2443 40.3995 27.3332L57.1328 31.6665L64.3328 24.4665C64.8661 23.9332 65.5106 23.6665 66.2661 23.6665C67.0217 23.6665 67.6661 23.9332 68.1995 24.4665C68.7328 24.9998 68.9995 25.6443 68.9995 26.3998C68.9995 27.1554 68.7328 27.7998 68.1995 28.3332L60.9995 35.5332L65.2661 52.1998C65.355 52.5109 65.3661 52.7998 65.2995 53.0665C65.2328 53.3332 65.0884 53.5776 64.8661 53.7998L64.5995 54.0665C64.1995 54.4665 63.7106 54.6221 63.1328 54.5332C62.555 54.4443 62.1328 54.1554 61.8661 53.6665L55.1328 41.3998ZM68.9995 71.6665V65.7998C68.9995 65.1776 68.7995 64.6665 68.3995 64.2665C67.9995 63.8665 67.4884 63.6665 66.8661 63.6665H54.8661V71.6665H68.9995Z" fill="#F4F4F4"/>
</g>
</svg>
